<?xml version="1.0" encoding="UTF-8"?>
<svg width="32px" height="33px" viewBox="0 0 32 33" version="1.1" xmlns="http://www.w3.org/2000/svg" xmlns:xlink="http://www.w3.org/1999/xlink">
    <!-- Generator: Sketch 50.2 (55047) - http://www.bohemiancoding.com/sketch -->
    <title>Fill 4</title>
    <desc>Created with Sketch.</desc>
    <defs></defs>
    <g id="Welcome" stroke="none" stroke-width="1" fill="none" fill-rule="evenodd">
        <g id="navigation-images" transform="translate(-49.000000, 0.000000)" fill="#474747">
            <path d="M64.9985267,0 C56.1643697,0 49,7.57419383 49,16.9180882 C49,24.3925806 53.5840572,30.7329691 59.9420179,32.9700202 C60.7425335,33.1258037 61.0342552,32.6034097 61.0342552,32.1547532 C61.0342552,31.7538703 61.020504,30.6893497 61.0126462,29.2779512 C56.562172,30.299891 55.6231622,27.0097434 55.6231622,27.0097434 C54.8953313,25.0551798 53.846312,24.5348629 53.846312,24.5348629 C52.3935971,23.4859206 53.9563216,23.5066918 53.9563216,23.5066918 C55.562264,23.6261258 56.40698,25.2504284 56.40698,25.2504284 C57.834157,27.835396 60.1522146,27.0886737 61.063722,26.6555956 C61.2090917,25.563034 61.6226097,24.8173503 62.0793456,24.3946577 C58.5266276,23.9678109 54.7912152,22.5159087 54.7912152,16.0332379 C54.7912152,14.1866842 55.4149299,12.6755842 56.4384112,11.4937067 C56.273397,11.0658214 55.7243316,9.34493296 56.5955677,7.01648889 C56.5955677,7.01648889 57.9382731,6.56160107 60.9949661,8.75087854 C62.27088,8.37492102 63.6401056,8.18798082 65.0004911,8.18071092 C66.3598944,8.18798082 67.7281378,8.37492102 69.0060161,8.75087854 C72.0607447,6.56160107 73.4014856,7.01648889 73.4014856,7.01648889 C74.2746861,9.34493296 73.7256208,11.0658214 73.5615888,11.4937067 C74.5870346,12.6755842 75.2058381,14.1866842 75.2058381,16.0332379 C75.2058381,22.5325256 71.4645324,23.9626181 67.9010099,24.3811565 C68.4746309,24.9035505 68.9863716,25.9358758 68.9863716,27.514482 C68.9863716,29.7754199 68.966727,31.6001639 68.966727,32.1547532 C68.966727,32.6075639 69.255502,33.1341121 70.0668222,32.9689816 C76.4198717,30.7267378 81,24.3905035 81,16.9180882 C81,7.57419383 73.8356303,0 64.9985267,0" id="Fill-4"></path>
        </g>
    </g>
</svg>