<svg xmlns="http://www.w3.org/2000/svg" viewBox="0 0 189 141">
  <defs>
    <style>
      .cls-1 {
        fill: #6e6e6e;
        stroke: #707070;
      }

      .cls-2 {
        fill: #fff;
      }

      .cls-3, .cls-4, .cls-7 {
        fill: #707070;
      }

      .cls-3 {
        font-size: 70px;
      }

      .cls-3, .cls-4 {
        font-family: HelveticaNeue-Bold, Helvetica Neue;
        font-weight: 700;
      }

      .cls-4 {
        font-size: 20px;
      }

      .cls-5, .cls-7 {
        stroke: none;
      }

      .cls-6 {
        fill: none;
      }
    </style>
  </defs>
  <g id="logo-mobile" transform="translate(-353 -249)">
    <g id="Rectangle_2" data-name="Rectangle 2" class="cls-1" transform="translate(353 249)">
      <rect class="cls-5" width="79" height="137" rx="10"/>
      <rect class="cls-6" x="0.5" y="0.5" width="78" height="136" rx="9.5"/>
    </g>
    <g id="Path_1" data-name="Path 1" class="cls-2" transform="translate(356 251)">
      <path class="cls-5" d="M 63 132.265625 L 10 132.265625 C 4.761683464050293 132.265625 0.5 128.8803253173828 0.5 124.7192306518555 L 0.5 8.046396255493164 C 0.5 3.885295867919922 4.761683464050293 0.4999958276748657 10 0.4999958276748657 L 13.2172908782959 0.4999958276748657 L 18.05624961853027 4.151479244232178 L 18.18993377685547 4.252362728118896 L 18.3574161529541 4.252362728118896 L 55.33071517944336 4.252362728118896 L 55.52175140380859 4.252362728118896 L 55.66411590576172 4.124979019165039 L 59.71545028686523 0.4999958276748657 L 63 0.4999958276748657 C 68.23831939697266 0.4999958276748657 72.5 3.885295867919922 72.5 8.046396255493164 L 72.5 124.7192306518555 C 72.5 128.8803253173828 68.23831939697266 132.265625 63 132.265625 Z"/>
      <path class="cls-7" d="M 10 1 C 5.037384033203125 1 1 4.160995483398438 1 8.046394348144531 L 1 124.7192306518555 C 1 128.6046295166016 5.037384033203125 131.765625 10 131.765625 L 63 131.765625 C 67.96261596679688 131.765625 72 128.6046295166016 72 124.7192306518555 L 72 8.046394348144531 C 72 4.160995483398438 67.96261596679688 1 63 1 L 59.90649032592773 1 L 55.99752807617188 4.497589111328125 L 55.71279907226562 4.752365112304688 L 55.33072662353516 4.752365112304688 L 18.35741806030273 4.752365112304688 L 18.02245330810547 4.752365112304688 L 17.75507354736328 4.55059814453125 L 13.04979705810547 1 L 10 1 M 10 0 L 13.38476181030273 0 L 18.35741806030273 3.752365112304688 L 55.33072662353516 3.752365112304688 L 59.52441787719727 0 L 63 0 C 68.52285766601562 0 73 3.60247802734375 73 8.046394348144531 L 73 124.7192306518555 C 73 129.1631164550781 68.52285766601562 132.765625 63 132.765625 L 10 132.765625 C 4.477142333984375 132.765625 0 129.1631164550781 0 124.7192306518555 L 0 8.046394348144531 C 0 3.60247802734375 4.477142333984375 0 10 0 Z"/>
    </g>
    <text id="OS" class="cls-3" transform="translate(439 363)"><tspan x="0" y="0">OS</tspan></text>
    <text id="DEV_BLOG" data-name="DEV BLOG" class="cls-4" transform="translate(439 386)"><tspan x="0" y="0">DEV BLOG</tspan></text>
  </g>
</svg>
