<?xml version="1.0" standalone="no"?><!-- Generator: Gravit.io --><svg xmlns="http://www.w3.org/2000/svg" xmlns:xlink="http://www.w3.org/1999/xlink" style="isolation:isolate" viewBox="348 259 201.766 201.766" width="201.766" height="201.766"><g id="Group"><path d=" M 348 359.883 C 348 304.204 393.204 259 448.883 259 C 504.562 259 549.766 304.204 549.766 359.883 C 549.766 415.562 504.562 460.766 448.883 460.766 C 393.204 460.766 348 415.562 348 359.883 Z " fill="rgb(255,255,255)"/><path d=" M 356.325 360.391 C 356.325 309.307 397.799 267.833 448.883 267.833 C 499.967 267.833 541.442 309.307 541.442 360.391 C 541.442 411.475 499.967 452.95 448.883 452.95 C 397.799 452.95 356.325 411.475 356.325 360.391 Z " fill="rgb(71,71,71)"/><g transform="matrix(1,0,0,1,387,306.266)"><text transform="matrix(1,0,0,1,0,83.496)" style="font-family:&quot;Roboto&quot;;font-weight:700;font-size:90px;font-style:normal;fill:#FFFFFF;stroke:none;">O</text></g><g transform="matrix(1,0,0,1,450,305.766)"><text transform="matrix(1,0,0,1,0,83.496)" style="font-family:&quot;Roboto&quot;;font-weight:700;font-size:90px;font-style:normal;fill:#FFFFFF;stroke:none;">S</text></g></g></svg>